<?xml version="1.0" encoding="iso-8859-1"?>
<!-- Generator: Adobe Illustrator 19.0.0, SVG Export Plug-In . SVG Version: 6.00 Build 0)  -->
<svg version="1.1" id="Layer_1" xmlns="http://www.w3.org/2000/svg" xmlns:xlink="http://www.w3.org/1999/xlink" x="0px" y="0px"
	 viewBox="0 0 512.009 512.009" style="enable-background:new 0 0 512.009 512.009;" xml:space="preserve">
<circle style="fill:#F95428;" cx="256.004" cy="256.004" r="256.004"/>
<g>
	<path style="fill:#E54728;" d="M121.499,390.501C29.407,298.407,22.15,153.608,99.723,53.204
		c-8.593,6.638-16.861,13.895-24.743,21.777c-99.974,99.974-99.974,262.065,0,362.038s262.065,99.974,362.038,0
		c7.881-7.881,15.138-16.15,21.777-24.743C358.392,489.85,213.593,482.593,121.499,390.501z"/>
	<path style="fill:#E54728;" d="M219.484,328.985c-2.758,0-5.492-1.196-7.367-3.502c-3.306-4.065-2.692-10.043,1.374-13.349
		c12.078-9.824,27.416-15.235,43.187-15.235c15.038,0,29.816,4.977,41.614,14.013c4.16,3.187,4.949,9.143,1.764,13.303
		c-3.187,4.161-9.142,4.949-13.303,1.764c-8.504-6.514-19.185-10.101-30.074-10.101c-11.422,0-22.507,3.899-31.213,10.979
		C223.706,328.289,221.59,328.985,219.484,328.985z"/>
</g>
<g>
	<path style="fill:#4D4D4D;" d="M177.781,228.807c0-4.059-0.701-7.957-1.974-11.586c3.792,0.39,7.754,0.611,11.906,0.611
		c10.99,0,23.242-1.495,36.755-5.169c5.056-1.375,8.04-6.589,6.666-11.647c-1.376-5.058-6.598-8.039-11.647-6.666
		c-67.339,18.318-96.497-24.523-97.722-26.381c-2.848-4.375-8.697-5.631-13.089-2.802c-4.407,2.836-5.678,8.708-2.842,13.115
		c0.316,0.493,6.677,10.214,19.755,19.873c-10.741,6.011-18.022,17.495-18.022,30.653c0,19.358,15.749,35.107,35.107,35.107
		S177.781,248.166,177.781,228.807z"/>
	<path style="fill:#4D4D4D;" d="M260.482,257.053c-46.994,0-88.83,29.238-104.106,72.754c-1.735,4.944,0.867,10.359,5.811,12.096
		c4.949,1.737,10.36-0.865,12.097-5.811c12.61-35.925,47.251-60.062,86.199-60.062c38.94,0,73.576,24.137,86.186,60.062
		c1.371,3.906,5.037,6.35,8.953,6.349c1.043,0,2.103-0.173,3.143-0.538c4.944-1.736,7.545-7.151,5.811-12.096
		C349.3,286.291,307.467,257.053,260.482,257.053z"/>
	<path style="fill:#4D4D4D;" d="M403.353,165.214c-4.375-2.85-10.245-1.608-13.116,2.753c-1.207,1.833-30.365,44.704-97.722,26.384
		c-5.052-1.374-10.271,1.608-11.647,6.666c-1.375,5.057,1.609,10.271,6.666,11.647c13.516,3.675,25.764,5.169,36.755,5.169
		c4.151,0,8.113-0.221,11.905-0.611c-1.273,3.63-1.974,7.526-1.974,11.586c0,19.358,15.749,35.107,35.107,35.107
		s35.107-15.749,35.107-35.107c0-13.159-7.281-24.643-18.022-30.653c13.078-9.659,19.439-19.38,19.755-19.873
		C408.993,173.891,407.728,168.063,403.353,165.214z"/>
</g>
<g>
</g>
<g>
</g>
<g>
</g>
<g>
</g>
<g>
</g>
<g>
</g>
<g>
</g>
<g>
</g>
<g>
</g>
<g>
</g>
<g>
</g>
<g>
</g>
<g>
</g>
<g>
</g>
<g>
</g>
</svg>
