<?xml version="1.0" encoding="iso-8859-1"?>
<!-- Generator: Adobe Illustrator 19.0.0, SVG Export Plug-In . SVG Version: 6.00 Build 0)  -->
<svg version="1.1" id="Layer_1" xmlns="http://www.w3.org/2000/svg" xmlns:xlink="http://www.w3.org/1999/xlink" x="0px" y="0px"
	 viewBox="0 0 512.009 512.009" style="enable-background:new 0 0 512.009 512.009;" xml:space="preserve">
<circle style="fill:#F7B239;" cx="256.004" cy="256.004" r="256.004"/>
<path style="fill:#E09B2D;" d="M121.499,390.501C29.407,298.407,22.15,153.608,99.723,53.204
	c-8.593,6.638-16.861,13.895-24.743,21.777c-99.974,99.974-99.974,262.065,0,362.038s262.065,99.974,362.038,0
	c7.881-7.881,15.138-16.15,21.777-24.743C358.392,489.85,213.593,482.593,121.499,390.501z"/>
<g>
	<path style="fill:#4D4D4D;" d="M196.533,239.069c-3.23,0-6.378-1.65-8.154-4.624c-8.571-14.347-23.667-22.913-40.38-22.913
		s-31.809,8.565-40.38,22.913c-2.686,4.499-8.512,5.966-13.012,3.279c-4.499-2.688-5.966-8.513-3.279-13.012
		c12.03-20.136,33.215-32.156,56.671-32.156s44.641,12.022,56.671,32.156c2.687,4.499,1.22,10.325-3.279,13.012
		C199.867,238.636,198.188,239.069,196.533,239.069z"/>
	<path style="fill:#4D4D4D;" d="M412.536,239.069c-3.23,0-6.378-1.65-8.154-4.624c-8.571-14.347-23.667-22.913-40.381-22.913
		c-16.713,0-31.807,8.566-40.379,22.913c-2.687,4.499-8.513,5.966-13.012,3.279c-4.499-2.687-5.966-8.513-3.279-13.012
		c12.03-20.135,33.215-32.156,56.67-32.156c23.456,0,44.641,12.02,56.673,32.156c2.687,4.499,1.22,10.324-3.279,13.012
		C415.87,238.636,414.192,239.069,412.536,239.069z"/>
	<path style="fill:#4D4D4D;" d="M256.001,378.577c-51.477,0-102.933-19.587-142.121-58.774c-3.706-3.706-3.706-9.713,0-13.418
		c3.707-3.706,9.714-3.706,13.42,0c70.961,70.965,186.433,70.966,257.402,0c3.708-3.706,9.715-3.704,13.42,0
		c3.706,3.706,3.706,9.714,0,13.42C358.943,358.981,307.462,378.577,256.001,378.577z"/>
</g>
<path style="fill:#E09B2D;" d="M256.001,415.388c-15.303,0-30.599-2.085-45.475-6.256c-5.045-1.414-7.989-6.652-6.575-11.698
	c1.414-5.045,6.648-7.991,11.698-6.575c26.398,7.401,54.306,7.402,80.706,0c5.049-1.414,10.283,1.53,11.698,6.575
	c1.414,5.047-1.53,10.283-6.575,11.698C286.602,413.301,271.298,415.388,256.001,415.388z"/>
<g>
</g>
<g>
</g>
<g>
</g>
<g>
</g>
<g>
</g>
<g>
</g>
<g>
</g>
<g>
</g>
<g>
</g>
<g>
</g>
<g>
</g>
<g>
</g>
<g>
</g>
<g>
</g>
<g>
</g>
</svg>
